# xmcd
#
# Track frame offsets:
# 150
# 16525
# 33597
# 49500
# 67152
# 79922
# 95297
# 108850
# 121885
# 137472
#
# Disc length: 2171 seconds
#
#
# Revision: 4
# Processed by: cddbd v1.5.1PL2 Copyright (c) Steve Scherf et al.
# Submitted via: FreeRIP 2.945 
#
DISCID=7408790a
DTITLE=Billy Dean - Fire In The Dark
DYEAR=1993
DGENRE=Country
TTITLE0=Tryin' To Hide A Fire In The Dark
TTITLE1=When A Women Cries
TTITLE2=That's What I Like About Love
TTITLE3=I Wanna Take Care Of You
TTITLE4=Only A Woman Knows
TTITLE5=We Just Disagree
TTITLE6=Two Of The Lucky Ones
TTITLE7=I'm Not Built That Way
TTITLE8=Give Me All The Pieces
TTITLE9=Steam Roller
EXTD=
EXTT0=
EXTT1=
EXTT2=
EXTT3=
EXTT4=
EXTT5=
EXTT6=
EXTT7=
EXTT8=
EXTT9=
PLAYORDER=
